<?xml version="1.0" encoding="UTF-8"?>
<svg xmlns="http://www.w3.org/2000/svg" xmlns:xlink="http://www.w3.org/1999/xlink"
     width="404" height="382" viewBox="0 0 404 382">
<defs>
</defs>
<rect x="0" y="0" width="404" height="382" fill="#2b2b2b" />
<text x="60.0" y="30" font-size="18.0" fill="#ffffff" font-family="'Helvetica Neue', Helvetica, Arial, sans-serif" font-weight="bold">variantprioritization</text>
<path d="M80.0,163.0 L157.0,163.0 Q167.0,163.0,173.0,155.0 L191.0,131.0 Q197.0,123.0,207.0,123.0 L284.0,123.0" stroke="#2196F3" stroke-width="3.0" fill="none" stroke-linecap="round" stroke-linejoin="round" />
<path d="M80.0,120.0 L140.0,120.0" stroke="#4CAF50" stroke-width="3.0" stroke-linecap="round" />
<path d="M140.0,120.0 L200.0,120.0" stroke="#4CAF50" stroke-width="3.0" stroke-linecap="round" />
<path d="M200.0,120.0 L284.0,120.0" stroke="#4CAF50" stroke-width="3.0" stroke-linecap="round" />
<rect x="75.0" y="115.0" width="10.0" height="10.0" rx="5.0" ry="5.0" fill="#ffffff" stroke="#333333" stroke-width="1.5" />
<rect x="75.0" y="158.0" width="10.0" height="10.0" rx="5.0" ry="5.0" fill="#ffffff" stroke="#333333" stroke-width="1.5" />
<rect x="135.0" y="115.0" width="10.0" height="10.0" rx="5.0" ry="5.0" fill="#ffffff" stroke="#333333" stroke-width="1.5" />
<rect x="195.0" y="115.0" width="10.0" height="10.0" rx="5.0" ry="5.0" fill="#ffffff" stroke="#333333" stroke-width="1.5" />
<rect x="279.0" y="115.0" width="10.0" height="13.0" rx="5.0" ry="5.0" fill="#ffffff" stroke="#333333" stroke-width="1.5" />
<text x="80.0" y="136.0" font-size="10.0" fill="#e0e0e0" font-family="'Helvetica Neue', Helvetica, Arial, sans-serif" text-anchor="middle" dominant-baseline="hanging">Input</text>
<text x="80.0" y="179.0" font-size="10.0" fill="#e0e0e0" font-family="'Helvetica Neue', Helvetica, Arial, sans-serif" text-anchor="middle" dominant-baseline="hanging">Reference</text>
<text x="140.0" y="104.0" font-size="10.0" fill="#e0e0e0" font-family="'Helvetica Neue', Helvetica, Arial, sans-serif" text-anchor="middle" dominant-baseline="auto">Reformat</text>
<text x="200.0" y="136.0" font-size="10.0" fill="#e0e0e0" font-family="'Helvetica Neue', Helvetica, Arial, sans-serif" text-anchor="middle" dominant-baseline="hanging">Prepare</text>
<text x="284.0" y="104.0" font-size="10.0" fill="#e0e0e0" font-family="'Helvetica Neue', Helvetica, Arial, sans-serif" text-anchor="middle" dominant-baseline="auto">PCGR</text>
<rect x="60.0" y="190.0" width="107.52" height="72.0" rx="6" ry="6" fill="rgba(0, 0, 0, 0.3)" />
<path d="M72.0,214.0 L96.0,214.0" stroke="#4CAF50" stroke-width="3.0" stroke-linecap="round" />
<text x="108.0" y="214.0" font-size="11.0" fill="#e0e0e0" font-family="'Helvetica Neue', Helvetica, Arial, sans-serif" dominant-baseline="central">Main</text>
<path d="M72.0,238.0 L96.0,238.0" stroke="#2196F3" stroke-width="3.0" stroke-linecap="round" />
<text x="108.0" y="238.0" font-size="11.0" fill="#e0e0e0" font-family="'Helvetica Neue', Helvetica, Arial, sans-serif" dominant-baseline="central">Reference</text>
<text x="374.0" y="374" font-size="8" fill="rgba(150, 150, 150, 0.6)" font-family="'Helvetica Neue', Helvetica, Arial, sans-serif" text-anchor="end">created with nf-metro v0.3.0</text>
</svg>
